<svg id="Capa_1" enable-background="new 0 0 512 512" height="512" viewBox="0 0 512 512" width="512" xmlns="http://www.w3.org/2000/svg"><g><g><path d="m107.528 278.601c12.435 0 22.515-10.08 22.515-22.515s-10.08-22.515-22.515-22.515h-54.498v-50.888h54.498c12.435 0 22.515-10.08 22.515-22.515s-10.08-22.515-22.515-22.515h-77.013c-12.435-.001-22.515 10.079-22.515 22.514v191.73c0 .018.001.036.001.054s-.001.036-.001.054c0 12.435 10.08 22.515 22.515 22.515h77.013c12.435 0 22.515-10.08 22.515-22.515s-10.08-22.515-22.515-22.515h-54.498v-50.889z" fill="#aee295"/><g><g fill="#98db7c"><path d="m40.03 233.571h13v-50.888h-13c-2.761 0-5 2.238-5 5v40.888c0 2.761 2.239 5 5 5z"/><path d="m112.044 160.167c0 12.435-10.08 22.515-22.515 22.515h18c12.435 0 22.515-10.08 22.515-22.515s-10.08-22.515-22.515-22.515h-18c12.434 0 22.515 10.08 22.515 22.515z"/><path d="m107.528 329.49h-18c12.435 0 22.515 10.08 22.515 22.515s-10.08 22.515-22.515 22.515h18c12.435 0 22.515-10.08 22.515-22.515.001-12.435-10.08-22.515-22.515-22.515z"/><path d="m40.03 329.49h13v-50.889h-13c-2.761 0-5 2.239-5 5v40.889c0 2.761 2.239 5 5 5z"/><path d="m107.528 233.571h-18c12.435 0 22.515 10.08 22.515 22.515s-10.08 22.515-22.515 22.515h18c12.435 0 22.515-10.08 22.515-22.515.001-12.435-10.08-22.515-22.515-22.515z"/></g></g><path d="m204.737 374.521c-41.186 0-74.694-33.508-74.694-74.694v-87.653c0-41.186 33.507-74.694 74.693-74.694 35.672 0 66.499 25.4 73.3 60.396 2.372 12.207-5.601 24.025-17.807 26.397-12.201 2.37-24.023-5.6-26.396-17.807-2.697-13.881-14.934-23.956-29.095-23.956-16.357 0-29.663 13.307-29.663 29.663v87.653c0 16.357 13.306 29.663 29.662 29.663 14.162 0 26.399-10.075 29.096-23.955 2.373-12.207 14.196-20.176 26.396-17.807 12.207 2.372 20.179 14.19 17.807 26.397-6.8 34.997-37.626 60.397-73.299 60.397z" fill="#aee295"/><g><g fill="#98db7c"><path d="m260.036 197.876c2.051 10.553-3.634 20.811-13.099 24.93 4.04 1.766 8.638 2.37 13.292 1.467 12.207-2.372 20.179-14.19 17.807-26.397-6.8-34.996-37.628-60.396-73.3-60.396-3.042 0-6.036.204-8.985.56 31.743 3.861 58.066 27.828 64.285 59.836z"/><path d="m175.074 299.827v-87.653c0-13.218 8.692-24.441 20.66-28.262-2.851-.911-5.877-1.401-8.997-1.401-16.357 0-29.663 13.307-29.663 29.663v87.653c0 16.357 13.306 29.663 29.662 29.663 3.12 0 6.146-.49 8.997-1.401-11.967-3.821-20.659-15.044-20.659-28.262z"/><path d="m260.229 287.728c-4.654-.904-9.251-.3-13.291 1.467 9.465 4.12 15.149 14.377 13.099 24.93-6.22 32.008-32.542 55.975-64.283 59.836 2.948.355 5.942.56 8.984.56 35.672 0 66.499-25.4 73.299-60.396 2.371-12.207-5.601-24.025-17.808-26.397z"/></g></g><circle cx="385.982" cy="256.503" fill="#8bcaff" r="118.018"/><path d="m385.982 138.485c-3.028 0-6.029.115-9 .339 60.975 4.598 109.018 55.527 109.018 117.679s-48.043 113.081-109.018 117.679c2.971.224 5.972.339 9 .339 65.18 0 118.018-52.838 118.018-118.018s-52.838-118.018-118.018-118.018z" fill="#71bff4"/><path d="m300.475 337.845c2.65-4.306 6.161-8.24 10.772-10.589 14.824-7.55 25.695-19.977 36.566-11.787s-3.628 23.508 8.069 31.414c8.505 5.749 17.861 16.98 13.602 26.484-27.007-3.778-51.088-16.69-69.009-35.522z" fill="#aee295"/><path d="m428.245 279.762c10.773 5.224 24.161-11.364 44.287-15.014 19.837-3.598 29.561 10.952 29.836 11.37-6.706 40.084-33.611 73.32-69.899 88.888-13.119-.506-22.775-18.655-13.494-33.015 9.283-14.363-19.457-18.552-20.654-37.703-1.196-19.152 19.152-19.75 29.924-14.526z" fill="#aee295"/><path d="m485.693 264.991c-2.97 41.787-27.694 77.554-62.913 96.054 2.758 2.35 6.091 3.822 9.689 3.961 36.288-15.568 63.192-48.805 69.899-88.888-.205-.313-5.673-8.488-16.675-11.127z" fill="#98db7c"/><g><path d="m435.588 149.394c-15.082-6.997-31.886-10.91-49.606-10.91-2.999 0-5.967.125-8.909.345 15.797 1.204 30.723 5.521 44.17 12.334 7.64-1.196 14.093-1.748 14.345-1.769z" fill="#98db7c"/></g><path d="m385.982 138.485c17.72 0 34.524 3.913 49.606 10.91-.624.053-39.353 3.36-39.843 11.693-.494 8.4 46.449 19.765 39.858 34.59-5.485 12.336-39.605-16.39-49.367-10.913s17.416 15.638 3.58 33.782-28.652 25.678-31.868 45.63-22.729 27.364-31.876 13.528c-5.409-8.182-.988-46.449-17.789-63.25-7.826-7.826-13.608-17.696-17.825-27.257 21.452-29.518 56.244-48.713 95.524-48.713z" fill="#aee295"/></g><path d="m499.257 201.281c-1.825-3.728-6.327-5.271-10.053-3.446-3.728 1.824-5.27 6.325-3.446 10.053 7.44 15.201 11.212 31.557 11.212 48.615 0 1.56-.041 3.11-.105 4.655-6.448-3.497-14.958-5.653-25.251-3.788-10.297 1.868-18.898 6.635-25.81 10.467-5.662 3.139-11.517 6.387-13.944 5.21-8.485-4.115-21.928-5.652-31.391.695-6.615 4.437-9.943 11.927-9.37 21.089.77 12.314 9.568 19.74 15.993 25.163 2.227 1.88 6.373 5.379 6.533 6.681 0 .101-.118.574-.643 1.386-5.995 9.275-6.547 20.637-1.478 30.392.951 1.83 2.089 3.5 3.349 5.028-9.133 2.445-18.725 3.757-28.619 3.757-2.705 0-5.385-.102-8.042-.294-.836-10.118-8.865-19.996-17.908-26.109-1.658-1.12-1.98-2.117-1.078-8.658.873-6.332 2.192-15.9-6.693-22.594-12.189-9.184-23.878-1.684-34.191 4.932-3.335 2.14-6.784 4.352-10.379 6.183-2.744 1.398-5.294 3.262-7.638 5.563-15.499-19.055-24.804-43.339-24.804-69.759 0-19.74 5.198-38.286 14.288-54.353 3.97 6.785 8.409 12.664 13.28 17.535 8.964 8.964 10.846 27.477 12.22 40.994.989 9.728 1.703 16.755 4.649 21.21 4.474 6.768 11.173 10.489 18.518 10.489 1.573 0 3.177-.171 4.794-.519 11.357-2.446 20.115-12.837 22.313-26.472 1.811-11.236 8.037-17.716 16.655-26.684 4.27-4.443 9.109-9.48 13.833-15.674 9.456-12.4 4.96-22.913.57-29.572 3.357 1.381 7.127 3.192 9.918 4.533 11.423 5.486 21.287 10.222 29.174 7.325 3.225-1.186 5.683-3.504 7.105-6.704 4.316-9.708-3.045-17.474-7.817-21.239-5.4-4.261-12.785-8.022-19.301-11.34-2.48-1.263-5.645-2.875-8.248-4.349 6.112-1.909 16.599-3.826 27.077-4.825 13.505 6.547 25.698 15.845 35.728 27.518 2.705 3.148 7.45 3.506 10.597.802 3.148-2.705 3.506-7.45.802-10.597-23.94-27.86-58.72-43.839-95.422-43.839-42.989 0-81.002 21.686-103.694 54.687-11.229-32.849-42.386-55.695-77.906-55.695-28.112 0-52.968 14.168-67.834 35.729.329-1.779.51-3.61.51-5.483 0-16.583-13.491-30.074-30.074-30.074h-77.162c-16.583.001-30.074 13.492-30.074 30.075v35.292c0 4.15 3.365 7.515 7.515 7.515s7.515-3.365 7.515-7.515v-35.292c0-8.296 6.749-15.045 15.045-15.045h77.164c8.296 0 15.045 6.749 15.045 15.045s-6.749 15.045-15.045 15.045h-54.606c-4.15 0-7.515 3.364-7.515 7.515v50.988c0 4.15 3.364 7.515 7.515 7.515h54.605c8.296 0 15.045 6.749 15.045 15.044 0 8.296-6.749 15.045-15.045 15.045h-54.605c-4.15 0-7.515 3.364-7.515 7.515v50.989c0 4.15 3.364 7.515 7.515 7.515h54.605c8.296 0 15.045 6.749 15.045 15.044s-6.749 15.045-15.045 15.045h-77.164c-8.269 0-15.002-6.706-15.045-14.965.001-.047.001-.093.001-.134 0-.045 0-.094-.001-.145v-126.665c0-4.15-3.365-7.515-7.515-7.515s-7.514 3.364-7.514 7.515v126.753.058.051c0 16.583 13.491 30.074 30.074 30.074h77.164c16.583 0 30.074-13.491 30.074-30.074 0-1.954-.194-3.863-.551-5.714 14.862 21.595 39.738 35.788 67.877 35.788 35.279 0 66.245-22.541 77.666-55.032 22.663 33.196 60.794 55.032 103.933 55.032 69.346 0 125.763-56.417 125.763-125.764 0-19.367-4.287-37.947-12.743-55.222zm-184.491 132.81c4.261-2.17 8.199-4.697 11.674-6.926 10.225-6.56 13.7-8.088 17.032-5.579 1.526 1.15 1.668 2.586.848 8.538-.907 6.578-2.277 16.52 7.55 23.162 4.439 3 8.51 7.375 10.344 11.319-19.695-4.374-37.43-14.006-51.655-27.344 1.331-1.357 2.736-2.42 4.207-3.17zm71.47-188.321c5.856 0 11.654.468 17.352 1.371-8.348 2.553-14.665 6.404-15.072 13.32-.491 8.343 8.258 12.798 20.365 18.964 4.744 2.416 14.716 7.494 18.63 11.211-4.153-1.24-10.566-4.32-14.463-6.192-12.024-5.776-22.41-10.766-30.235-6.372-3.966 2.225-5.338 5.259-5.791 7.413-1.107 5.265 2.05 9.462 4.836 13.165 5.004 6.652 6.495 9.692 2.243 15.267-4.204 5.513-8.533 10.018-12.719 14.374-9.307 9.685-18.097 18.834-20.655 34.706-1.37 8.501-6.332 13.243-10.64 14.171-3.052.657-5.612-.543-7.571-3.503-.979-1.782-1.727-9.135-2.273-14.504-1.603-15.764-3.797-37.354-16.545-50.102-5.417-5.416-10.259-12.477-14.433-21.021 20.295-25.726 51.737-42.268 86.971-42.268zm-278.998 80.242h-47.09v-35.958h47.09c8.138 0 15.527-3.255 20.947-8.524-3.793 9.456-5.902 19.762-5.902 30.558v17.975c-4.429-2.571-9.566-4.051-15.045-4.051zm0 96.107h-47.09v-35.959h47.09c5.479 0 10.616-1.48 15.045-4.05v17.803c0 10.901 2.148 21.305 6.012 30.836-5.43-5.333-12.864-8.63-21.057-8.63zm67.678-50.412c-4.15 0-7.515 3.364-7.515 7.515v20.691c0 20.532 16.704 37.236 37.235 37.236 17.779 0 33.142-12.652 36.53-30.083 1.583-8.143 9.495-13.48 17.638-11.899 3.944.767 7.355 3.023 9.602 6.355 2.247 3.331 3.063 7.339 2.296 11.283-6.129 31.541-33.913 54.433-66.066 54.433-37.123 0-67.325-30.202-67.325-67.325v-87.825c0-37.123 30.202-67.325 67.324-67.325 32.153 0 59.938 22.892 66.067 54.433.767 3.945-.049 7.952-2.296 11.283s-5.658 5.588-9.602 6.355c-8.14 1.583-16.055-3.756-17.638-11.898-3.387-17.432-18.75-30.084-36.529-30.084-20.532 0-37.236 16.704-37.236 37.236v37.075c0 4.15 3.365 7.515 7.515 7.515s7.515-3.364 7.515-7.515v-37.075c0-12.245 9.962-22.207 22.206-22.207 10.6 0 19.758 7.537 21.775 17.922 3.164 16.277 18.978 26.945 35.258 23.784.452-.088.898-.191 1.343-.298-1.665 8.149-2.541 16.581-2.541 25.215 0 8.263.81 16.339 2.338 24.161-.378-.089-.757-.176-1.141-.251-16.279-3.163-32.094 7.508-35.258 23.785-2.018 10.384-11.176 17.921-21.776 17.921-12.244 0-22.206-9.962-22.206-22.207v-20.691c.001-4.151-3.363-7.515-7.513-7.515zm256.748 85.778c-2.668-.665-5.195-2.829-6.822-5.962-2.548-4.902-2.262-10.623.764-15.304 8.474-13.113-2.351-22.25-8.819-27.71-6.232-5.26-10.344-9.119-10.687-14.615-.35-5.596 1.897-7.103 2.743-7.67 3.953-2.651 11.703-1.962 16.461.346 9.444 4.58 18.771-.589 27.788-5.589 6.255-3.468 13.345-7.398 21.205-8.823 10.792-1.959 17.558 3.071 20.527 6.078-7.072 35.394-31.065 64.754-63.16 79.249z"/></g></svg>