<svg id="Capa_1" enable-background="new 0 0 512 512" height="512" viewBox="0 0 512 512" width="512" xmlns="http://www.w3.org/2000/svg"><g><g><circle cx="256" cy="256" fill="#dbedff" r="256"/><path d="m49.152 256c0-133.093 101.571-242.45 231.424-254.82-8.089-.771-16.284-1.18-24.576-1.18-141.385 0-256 114.615-256 256s114.615 256 256 256c8.291 0 16.487-.409 24.576-1.18-129.853-12.37-231.424-121.726-231.424-254.82z" fill="#b5dcff"/><circle cx="256" cy="256" fill="#97dc7c" r="224.767"/><path d="m66.775 256c0-118.154 91.169-215.009 206.996-224.069-5.864-.459-11.789-.698-17.771-.698-124.135.001-224.766 100.632-224.766 224.767s100.631 224.767 224.766 224.767c5.982 0 11.907-.239 17.771-.698-115.828-9.06-206.996-105.915-206.996-224.069z" fill="#6bcb44"/></g><path d="m344.511 208.742c-41.525-50.645-69.552-97.3-81.688-118.858-2.995-5.32-10.648-5.325-13.643-.004-12.134 21.555-40.162 68.213-81.689 118.861-50.855 62.024-19.947 155.813 57.942 174.955 20.079 4.935 41.055 4.935 61.134 0l.002-.001c77.889-19.141 108.797-112.93 57.942-174.953z" fill="#6bcb44"/><path d="m279.346 383.696c-77.89-19.142-108.797-112.931-57.942-174.955 26.01-31.723 46.723-61.878 61.553-85.283-8.846-13.96-15.6-25.519-20.133-33.574-2.995-5.32-10.648-5.325-13.643-.004-12.134 21.555-40.162 68.213-81.689 118.861-50.855 62.024-19.948 155.813 57.942 174.955 18.879 4.64 38.55 4.915 57.523.83-1.207-.26-2.411-.535-3.611-.83z" fill="#4dc321"/><path d="m320.667 305.31c-3.341-2.579-8.155-1.783-10.876 1.443-10.114 11.991-24.315 20.251-42.088 22.864-2.098.308-3.976-1.344-3.976-3.464v-35.319c0-1.741 1.285-3.219 3.011-3.452 18.578-2.504 33.593-11.165 44.217-23.747 2.588-3.064 2.715-7.646-.046-10.555-3.244-3.418-8.63-3.165-11.559.346-7.609 9.119-18.18 15.62-31.452 18.125-2.162.408-4.171-1.231-4.171-3.431v-34.738c0-1.686 1.21-3.123 2.868-3.428 12.295-2.263 22.404-8.274 29.804-17.029 2.576-3.048 2.643-7.631-.116-10.516-3.247-3.396-8.616-3.136-11.54.367-4.248 5.091-9.821 8.856-16.542 10.921-2.226.684-4.475-1.027-4.475-3.356v-39.936c0-4.231-3.26-7.92-7.488-8.047-4.376-.131-7.964 3.377-7.964 7.723v40.259c0 2.332-2.253 4.041-4.481 3.355-6.623-2.036-12.141-5.728-16.373-10.727-2.689-3.176-7.458-3.916-10.768-1.394-3.525 2.685-4.067 7.736-1.258 11.102 7.415 8.887 17.599 14.997 30.026 17.28 1.653.304 2.854 1.744 2.854 3.425v34.744c0 2.163-1.952 3.841-4.078 3.443-13.252-2.48-23.808-8.94-31.42-17.996-2.671-3.178-7.466-3.857-10.757-1.327-3.5 2.691-4.032 7.724-1.23 11.081 10.63 12.739 25.732 21.527 44.465 24.054 1.729.233 3.021 1.708 3.021 3.453v35.318c0 2.12-1.879 3.772-3.976 3.464-17.769-2.612-31.971-10.87-42.088-22.864-2.721-3.226-7.535-4.021-10.875-1.442-3.489 2.693-4.015 7.718-1.217 11.071 13.257 15.887 32.113 26.34 55.082 28.931 1.755.198 3.074 1.696 3.074 3.462v93.509c0 4.231 3.26 7.92 7.489 8.047 4.375.131 7.964-3.377 7.964-7.723v-93.833c0-1.766 1.319-3.264 3.074-3.462 22.932-2.587 41.805-13.018 55.083-28.931 2.797-3.352 2.271-8.376-1.218-11.07z" fill="#42ab20"/></g></svg>