<svg id="Capa_1" enable-background="new 0 0 512 512" height="512" viewBox="0 0 512 512" width="512" xmlns="http://www.w3.org/2000/svg"><g><g><path clip-rule="evenodd" d="m12.804 172.534 155.073-27.294-28.628-35.967c81.037-64.48 199.007-51.046 263.491 29.987 36.394 45.745 47.959 103.225 36.564 156.255l60.969-10.742c7.398-62.836-9.269-128.478-51.786-181.905-84.579-106.315-239.312-123.916-345.633-39.341l-28.628-35.967z" fill="#bfdbff" fill-rule="evenodd"/></g><g><path clip-rule="evenodd" d="m11.727 227.208c-7.398 62.836 9.269 128.507 51.786 181.933 84.58 106.286 239.313 123.915 345.634 39.34l28.628 35.967 61.423-144.974-155.075 27.266 28.628 35.996c-81.037 64.452-199.007 51.046-263.491-29.987-36.394-45.745-47.959-103.253-36.564-156.255z" fill="#bfdbff" fill-rule="evenodd"/></g><g><path clip-rule="evenodd" d="m121.023 210.372c12.698 67.966 69.756 100.901 134.977 77.915-12.698-67.995-69.756-100.929-134.977-77.915z" fill="#d4eb88" fill-rule="evenodd"/></g><g><path clip-rule="evenodd" d="m256 288.287c65.221 22.986 122.279-9.948 134.977-77.915-65.221-23.014-122.278 9.92-134.977 77.915z" fill="#d4eb88" fill-rule="evenodd"/></g><g><path d="m456.313 96.642c-42.569-53.507-103.425-87.232-171.359-94.963-64.61-7.351-128.271 9.644-180.383 47.949l-22.521-28.295c-2.197-2.759-5.684-4.155-9.177-3.68-3.494.477-6.478 2.759-7.853 6.006l-61.423 144.974c-1.43 3.375-.899 7.26 1.383 10.127 2.282 2.868 5.953 4.256 9.557 3.622l155.073-27.295c3.473-.611 6.368-3.007 7.617-6.305s.669-7.01-1.527-9.769l-22.226-27.924c50.367-35.665 115.723-42.711 172.946-18.058 5.071 2.184 10.954-.155 13.139-5.226 2.185-5.072-.155-10.955-5.227-13.139-67.086-28.904-144.222-18.64-201.309 26.782-2.075 1.651-3.41 4.059-3.71 6.695-.3 2.635.46 5.282 2.112 7.357l18.154 22.808-120.393 21.191 47.688-112.557 18.157 22.812c3.438 4.319 9.727 5.033 14.048 1.598 101.836-81.007 250.583-64.077 331.585 37.741 37.91 47.638 55.683 106.726 50.433 167.143l-39.464 6.953c7.461-53.514-7.155-107.527-41.069-150.154-3.438-4.324-9.729-5.038-14.05-1.599-4.321 3.438-5.038 9.728-1.599 14.049 33.224 41.76 45.84 95.678 34.613 147.929-.699 3.254.266 6.641 2.575 9.038 1.902 1.973 4.509 3.061 7.2 3.061.577 0 1.157-.05 1.736-.151l60.969-10.742c4.348-.767 7.679-4.293 8.195-8.679 8.042-68.297-11.097-135.525-53.89-189.299z"/><path d="m497.465 329.626-155.073 27.267c-3.473.61-6.367 3.006-7.618 6.302-1.25 3.297-.671 7.01 1.524 9.769l22.231 27.952c-28.049 19.861-60.183 30.449-92.53 32.229v-131.434c10.305 2.553 20.497 3.828 30.407 3.828 18.651 0 36.299-4.506 51.786-13.449 27.243-15.73 45.928-44.099 52.613-79.882.905-4.844-1.855-9.626-6.502-11.265-34.342-12.12-68.26-10.131-95.507 5.596-18.639 10.758-33.27 27.438-42.797 48.362-9.527-20.924-24.158-37.604-42.797-48.362-27.247-15.727-61.166-17.716-95.507-5.596-4.647 1.639-7.406 6.421-6.502 11.265 6.686 35.783 25.371 64.152 52.613 79.882 15.489 8.943 33.133 13.449 51.786 13.449 9.908 0 20.102-1.276 30.407-3.829v131.415c-48.763-2.778-96.189-25.477-128.916-66.602-33.227-41.766-45.843-95.683-34.612-147.927.699-3.253-.266-6.64-2.573-9.037-2.308-2.396-5.658-3.489-8.934-2.912l-60.967 10.714c-4.35.764-7.684 4.292-8.2 8.679-8.043 68.313 11.096 135.55 53.892 189.328 42.571 53.496 103.427 87.218 171.357 94.951 9.856 1.123 19.685 1.679 29.459 1.678 54.302-.001 106.765-17.156 150.925-49.616l22.521 28.295c2.197 2.76 5.685 4.157 9.177 3.68 3.494-.478 6.478-2.759 7.853-6.006l61.422-144.974c1.43-3.374.899-7.259-1.382-10.126-2.281-2.868-5.947-4.257-9.556-3.624zm-188.671-105.767c19.941-11.508 44.68-13.811 70.433-6.705-6.731 25.841-21.096 46.107-41.034 57.619-19.943 11.515-44.687 13.824-70.443 6.73 6.732-25.86 21.101-46.133 41.044-57.644zm-134.987 50.913c-19.937-11.511-34.303-31.778-41.034-57.619 25.753-7.105 50.492-4.802 70.433 6.705 19.944 11.511 34.312 31.785 41.044 57.643-25.757 7.095-50.501 4.786-70.443-6.729zm261.319 190.294-18.157-22.812c-3.438-4.319-9.726-5.034-14.048-1.598-43.341 34.477-95.173 51.21-146.676 51.208-69.493-.004-138.379-30.478-184.909-88.949-37.91-47.637-55.682-106.74-50.433-167.167l39.463-6.935c-7.469 53.512 7.148 107.524 41.07 150.161 38.946 48.942 96.591 74.447 154.765 74.444 43.103-.002 86.5-14.006 122.774-42.858 4.322-3.437 5.039-9.727 1.602-14.049l-18.162-22.835 120.4-21.17z"/><path d="m369.726 116.884c2.56 0 5.122-.98 7.077-2.936 3.904-3.905 3.89-10.25-.014-14.155-3.905-3.904-10.236-3.904-14.141 0-3.904 3.905-3.904 10.236 0 14.141l.028.028c1.95 1.95 4.499 2.922 7.05 2.922z"/></g></g></svg>