<svg height="512" viewBox="0 0 60 50" width="512" xmlns="http://www.w3.org/2000/svg"><g id="Page-1" fill="none" fill-rule="evenodd"><g id="013---CO2" fill-rule="nonzero" transform="translate(0 -1)"><g id="Icons" transform="translate(0 2)"><path id="Shape" d="m59 30c.0004997 4.4398925-2.2649482 8.573004-6.0079598 10.9609968-3.7430117 2.3879928-8.4458989 2.7005887-12.4720402.8290032-2.0630441 3.7371181-5.9534999 6.0995641-10.220906 6.2065579-4.2674061.1069937-8.2713632-2.057521-10.519094-5.6865579-4.5071283 2.6210774-10.1677444 2.1693258-14.202116-1.1334152-4.03437161-3.3027411-5.59502575-8.7626873-3.91557933-13.6986484 1.67944643-4.9359612 6.24620353-8.3110735 11.45769533-8.4679364h.01s-.13-1.33-.13-2.01c0-9.38884075 7.6111593-17 17-17s17 7.61115925 17 17v.04c6.7711442.5224051 11.9992261 6.1687336 12 12.96z" fill="#7f8e94"/><path id="Shape" d="m47 17.04v-.04c0-9.38884075-7.6111593-17-17-17-.506 0-1 .032-1.5.076 8.7712615.77315577 15.4987719 8.11872906 15.5 16.924v.04c6.6623606.5339046 11.8342394 6.0327243 11.9592676 12.715274s-4.837541 12.3709814-11.4752676 13.153726c4.6899258.5806107 9.3255375-1.4295729 12.1069739-5.2500603 2.7814365-3.8204874 3.27055-8.8494537 1.2774334-13.1343106s-6.1544963-7.1506295-10.8684073-7.4846291z" fill="#545c60"/><path id="Shape" d="m37.52 41.79c-1.8556355 3.3601002-5.2055837 5.6308106-9.014 6.11 4.5203676.5846662 8.979406-1.4543721 11.494-5.256-.85356-.1995802-1.6845296-.4857286-2.48-.854z" fill="#545c60"/><g fill="#ffdc00"><path id="Shape" d="m20.539 36c-4.2870459-.1360355-7.6573501-3.7124294-7.539-8-.1183501-4.2875706 3.2519541-7.8639645 7.539-8 1.3682395.0040245 2.7071941.3965903 3.861 1.132.2429969.1592352.404732.4162755.4431286.7042495.0383965.2879741-.0503417.5784108-.2431286.7957505l-1.33 1.527c-.3137449.3540949-.8313846.4426549-1.245.213-.4570721-.244659-.9675671-.3724545-1.486-.372-2.0772895.1365993-3.6565191 1.9215438-3.539 4-.1175191 2.0784562 1.4617105 3.8634007 3.539 4 .5184329.0004545 1.0289279-.127341 1.486-.372.4136154-.2296549.9312551-.1410949 1.245.213l1.33 1.531c.1927869.2173397.2815251.5077764.2431286.7957505-.0383966.287974-.2001317.5450143-.4431286.7042495-1.1542309.7340014-2.4931553 1.1251712-3.861 1.128z"/><path id="Shape" d="m34 36c-3.86 0-7-3.589-7-8s3.14-8 7-8 7 3.589 7 8-3.14 8-7 8zm0-12c-1.626 0-3 1.832-3 4s1.374 4 3 4 3-1.832 3-4-1.374-4-3-4z"/></g></g><g id="Icons_copy" fill="#000"><path id="Shape" d="m47.98 18.142c-.4607683-9.76687185-8.6341635-17.37974725-18.4091191-17.14664797-9.7749557.23309927-17.5761846 8.22691485-17.5708809 18.00464797 0 .3.022.7.049 1.08-5.35754559.5793019-9.85740403 4.2892563-11.44757098 9.4380673s.03398759 10.7501153 4.13182426 14.2496324c4.09783668 3.4995171 9.88432852 4.2268408 14.72074672 1.8503003 2.5197123 3.4786922 6.5930247 5.4907934 10.8869144 5.3778279 4.2938896-.1129656 8.2557702-2.3364601 10.5890856-5.9428279 1.615876.6300577 3.3356385.9512836 5.07.947 7.3434078-.0046728 13.4352459-5.6825234 13.9558635-13.0074547.5206175-7.3249312-4.7069358-13.8073046-11.9758635-14.8505453zm-1.98 25.858c-1.7473088.0051909-3.4741654-.3758991-5.057-1.116-.4771045-.2234627-1.0457504-.0384341-1.3.423-1.8065063 3.2713901-5.1479635 5.4042204-8.8758639 5.6654057-3.7279003.2611854-7.3341153-1.3848749-9.5791361-4.3724057.5246228-.364832 1.0231654-.7658046 1.492-1.2.2692925-.2411259.3874968-.6088099.3091676-.9616904-.0783292-.3528806-.3409978-.6360218-.687019-.740566-.3460211-.1045442-.7215269-.0142161-.9821486.2362564-.6232026.5773066-1.3079824 1.0843522-2.042 1.512-4.1443813 2.4094707-9.3486877 1.9952888-13.05980198-1.0393571-3.71111427-3.034646-5.15043802-8.0530819-3.61187095-12.5933744 1.53856706-4.5402926 5.73223085-7.6498803 10.52367293-7.8032685.282618.0000036.5520409-.119581.7416282-.3291749.1895873-.209594.2816336-.4896237.2533718-.7708251-.001-.01-.125-1.287-.125-1.91.0071452-5.7162495 3.0633305-10.99446991 8.0173204-13.84640666 4.95399-2.85193675 11.0531556-2.84431279 16.0000002.02s7.9898248 8.15015716 7.9826794 13.86640666c-.0015151.5239168.4015961.9601843.924 1 6.4054094.5235245 11.2612264 6.0005525 11.0135668 12.4225469-.2476595 6.4219944-5.5108627 11.5087898-11.9375668 11.5374531z"/><path id="Shape" d="m20.539 27c.354965-.0001707.7044188.0877941 1.017.256.8248619.4473214 1.8494451.2647307 2.469-.44l1.332-1.532c.3854823-.4440513.5578744-1.0342752.472-1.616-.0819697-.5685563-.4081382-1.0729669-.893-1.381-1.3140561-.8370858-2.8389745-1.2834287-4.397-1.287-4.8392647.136264-8.6571417 4.1602589-8.539 9-.1181417 4.8397411 3.6997353 8.863736 8.539 9 1.5590463-.0030026 3.0850827-.4493683 4.4-1.287.4848618-.3080331.8110303-.8124437.893-1.381.0858744-.5817248-.0865177-1.1719487-.472-1.616l-1.333-1.532c-.6196219-.7047336-1.6444257-.8869487-2.469-.439-.3133284.1680224-.6634641.2556422-1.019.255-1.5238803-.1382613-2.654555-1.4742299-2.539-3-.115555-1.5257701 1.0151197-2.8617387 2.539-3zm0 8c.6901009.0010819 1.3694668-.1708225 1.976-.5l1.352 1.526c-.9946441.633425-2.14879.9712069-3.328.974-3.7348486-.1357409-6.6576205-3.2645684-6.539-7-.1186205-3.7354316 2.8041514-6.8642591 6.539-7 1.1726826.0017153 2.3204379.3386168 3.308.971l-1.353 1.518c-.6013368-.3218114-1.2729679-.4898051-1.955-.489-2.6298209.1363937-4.6568372 2.3692823-4.539 5-.1178372 2.6307177 1.9091791 4.8636063 4.539 5z"/><path id="Shape" d="m34 21c-4.411 0-8 4.038-8 9s3.589 9 8 9 8-4.038 8-9-3.589-9-8-9zm0 16c-3.309 0-6-3.14-6-7s2.691-7 6-7 6 3.14 6 7-2.691 7-6 7z"/><path id="Shape" d="m34 25c-2.206 0-4 2.243-4 5s1.794 5 4 5 4-2.243 4-5-1.794-5-4-5zm0 8c-.944 0-2-1.283-2-3s1.056-3 2-3 2 1.283 2 3-1.056 3-2 3z"/><path id="Shape" d="m47.706 37.475c.554926-.4833535.9677024-1.1087409 1.194-1.809.2387624-.8455658.0605074-1.7542946-.48-2.447-.5808844-.7545157-1.4739117-1.203238-2.426-1.219-1.6405269-.0133248-2.9824135 1.3035133-3 2.944 0 .5522847.4477153 1 1 1s1-.4477153 1-1c.0168732-.5361878.46373-.9580206 1-.944.3294382.017434.6351342.1768483.838.437.1601735.2003358.2103872.4671429.134.712-.1488493.357445-.383009.6729768-.682.919-.1.1-.2.2-.3.306l-2.73 2.946c-.271109.2923107-.3426861.7177305-.1821587 1.0826642.1605274.3649336.5224856.5996495.9211587.5973358h4c.5522847 0 1-.4477153 1-1s-.4477153-1-1-1h-1.711l1.174-1.267c.08-.086.165-.171.25-.258z"/></g></g></g></svg>